<svg id="Capa_1" enable-background="new 0 0 512 512" height="512" viewBox="0 0 512 512" width="512" xmlns="http://www.w3.org/2000/svg"><g><circle cx="139.133" cy="302.353" fill="#ffd064" r="139.133"/><path d="m139.133 163.22c-6.093 0-12.094.394-17.981 1.154 68.347 8.819 121.152 67.231 121.152 137.979s-52.805 129.159-121.152 137.979c5.887.76 11.888 1.154 17.981 1.154 76.841 0 139.133-62.292 139.133-139.133s-62.292-139.133-139.133-139.133z" fill="#ffc250"/><path d="m273.6 85.646c-34.869-1.118-68.645 12.253-93.3 36.936l-40.599 40.645c20.124.081 39.24 4.43 56.488 12.195l41.672-22.465c8.299-4.473 18.328-4.305 26.472.446l24.699 14.408c17.03 9.934 18.058 34.163 1.93 45.503l-75.382 55.494c-10.07 7.081-13.347 20.806-6.996 31.353 5.777 9.594 17.481 13.676 27.904 9.894l50.418-16.122c20.637-6.599 39.575-17.645 55.478-32.36l55.4-51.261c3.877-3.587 8.963-5.579 14.244-5.579h17.611v-113.623z" fill="#d5985c"/><path d="m407.009 205.363c1.632-.403 3.313-.632 5.02-.632h17.611v-113.621l-22.631-.793z" fill="#c38959"/><path d="m504.228 236.089h-66.816c-4.292 0-7.772-3.48-7.772-7.772v-150.031c0-4.292 3.48-7.772 7.772-7.772h66.816c4.292 0 7.772 3.48 7.772 7.772v150.031c0 4.293-3.48 7.772-7.772 7.772z" fill="#365e7d"/><path d="m504.228 70.514h-21.462c4.292 0 7.772 3.479 7.772 7.772v150.031c0 4.293-3.48 7.772-7.772 7.772h21.462c4.292 0 7.772-3.48 7.772-7.772v-150.031c0-4.293-3.48-7.772-7.772-7.772z" fill="#2b4d66"/><g><g><path d="m136.963 364.112c-12.046 0-19.426-1.108-31.497-9.004-3.562-2.33-4.56-7.106-2.231-10.667 2.329-3.562 7.105-4.559 10.667-2.231 9.279 6.069 13.593 6.558 24.489 6.484 13.078-.087 20.668-9.84 22.185-18.865.608-3.616 1.485-15.806-12.755-20.839-16.65-5.886-26.219-10.464-33.026-15.804-7.619-5.976-11.085-16.409-9.046-27.228 2.236-11.865 10.472-21.298 21.496-24.619 22.307-6.718 38.299 4.178 38.969 4.646 3.491 2.434 4.348 7.238 1.912 10.728-2.423 3.474-7.189 4.337-10.676 1.95-.55-.365-10.914-7.043-25.76-2.566-6.565 1.978-9.881 7.866-10.796 12.716-.969 5.143.338 9.836 3.412 12.246 6.691 5.248 18.239 9.718 28.652 13.399 16.739 5.917 25.695 20.803 22.816 37.924-2.551 15.175-15.306 31.576-37.281 31.722-.516.006-1.028.008-1.53.008z" fill="#e7a52e"/></g><g><path d="m138.443 380.003c-4.256 0-7.706-3.45-7.706-7.706v-139.889c0-4.256 3.45-7.706 7.706-7.706s7.706 3.45 7.706 7.706v139.889c0 4.256-3.449 7.706-7.706 7.706z" fill="#e7a52e"/></g></g></g></svg>