<svg id="Layer_1" height="512" viewBox="0 0 512 512" width="512" xmlns="http://www.w3.org/2000/svg" data-name="Layer 1"><path d="m346.97 179.09-181.74.31-78.06 26.32 168.83 84.31 168.83-84.31z" fill="#9b8868"/><path d="m421.32 207.13-165.32 82.9v210.97l165.48-80.01v-213.56z" fill="#e0c59d"/><path d="m90.54 207.06-.02.03v213.9l165.48 80.01v-210.97z" fill="#ffe6bb"/><path d="m256 11a108.674 108.674 0 1 1 -76.83 31.83 108.291 108.291 0 0 1 76.83-31.83z" fill="#f2cd7d"/><circle cx="256" cy="119.66" fill="#fadf4a" r="77.61"/><path d="m424.83 205.72-168.83 84.31 35.16 70.32 167.99-89.33z" fill="#d3bd94"/><path d="m90.54 207.06-.02.03v213.9l30 14.505v-213.401z" fill="#e2c8a3"/><path d="m208.39 119.66a77.622 77.622 0 0 1 62.61-76.148 77.611 77.611 0 1 0 0 152.295 77.629 77.629 0 0 1 -62.61-76.147z" fill="#e2c447"/><path d="m87.17 205.72-34.32 65.3 167.99 89.33 35.16-70.32z" fill="#d3bd94"/><path d="m87.17 205.72-34.32 65.3 30.02 15.963 34.3-65.263z" fill="#bca784"/><g fill="#284268"><path d="m50.028 276.317 34.49 18.34v126.331a6 6 0 0 0 3.388 5.4l165.482 80.012a6 6 0 0 0 5.224 0l165.482-80.01a6 6 0 0 0 3.388-5.4v-126.333l34.49-18.34a6 6 0 0 0 2.494-8.089l-34.324-65.3a5.976 5.976 0 0 0 -3.371-2.882l-70.828-24.228a113.86 113.86 0 0 0 12.383-33.056 115.461 115.461 0 0 0 2.33-23.1 114.288 114.288 0 0 0 -33.2-80.607 3.049 3.049 0 0 0 -.852-.852 114.453 114.453 0 0 0 -161.212 0 3.015 3.015 0 0 0 -.852.852 114.447 114.447 0 0 0 -18.31 137.045l-70.9 23.907-.073.025a5.98 5.98 0 0 0 -3.395 2.892l-34.324 65.3a6 6 0 0 0 2.49 8.093zm199.972 215.117-153.482-74.21v-116.186l121.5 64.61a6 6 0 0 0 8.183-2.614l23.799-47.589zm165.482-74.21-153.482 74.21v-175.989l23.8 47.589a6 6 0 0 0 8.183 2.614l121.5-64.61zm35.583-148.7-157.289 83.64-29.725-59.45 158.2-79zm-297.543-142.866h5.11a6 6 0 0 0 0-12h-5.11a102.243 102.243 0 0 1 25.808-62.186l3.577 3.578a6 6 0 0 0 8.486-8.485l-3.578-3.578a102.24 102.24 0 0 1 62.185-25.807v5.109a6 6 0 0 0 12 0v-5.109a102.24 102.24 0 0 1 62.185 25.807l-3.578 3.578a6 6 0 1 0 8.486 8.485l3.577-3.578a102.243 102.243 0 0 1 25.808 62.186h-5.11a6 6 0 0 0 0 12h5.11a101.977 101.977 0 0 1 -25.778 62.217l-3.609-3.61a6 6 0 0 0 -8.486 8.485l3.611 3.611a102.123 102.123 0 0 1 -62.216 25.769v-5.1a6 6 0 0 0 -12 0v5.109a102.231 102.231 0 0 1 -62.185-25.807l3.578-3.578a6 6 0 0 0 -8.486-8.485l-3.578 3.578a102.248 102.248 0 0 1 -25.807-62.189zm9.393 60.854a115.644 115.644 0 0 0 11.627 13.752 6.034 6.034 0 0 0 .383.469 5.852 5.852 0 0 0 .469.383 114.448 114.448 0 0 0 161.575-.3c.034-.032.073-.053.106-.086s.054-.071.085-.1a115.427 115.427 0 0 0 12.157-14.4l60.007 20.527-153.324 76.566-153.245-76.523zm-73.169 27.2 158.2 79-29.725 59.45-157.286-83.637z"/><path d="m113.657 326.645a6 6 0 0 0 -6 6v5.837a6 6 0 0 0 12 0v-5.837a6 6 0 0 0 -6-6z"/><path d="m113.657 353.4a6 6 0 0 0 -6 6v44.058a6 6 0 0 0 12 0v-44.058a6 6 0 0 0 -6-6z"/><path d="m407.466 95.712a6 6 0 0 0 6 6h31.044a6 6 0 0 0 0-12h-31.044a6 6 0 0 0 -6 6z"/><path d="m401.842 64.5a5.976 5.976 0 0 0 3.593-1.2l31.044-23.257a6 6 0 1 0 -7.195-9.6l-31.044 23.257a6 6 0 0 0 3.6 10.8z"/><path d="m398.24 137.726 31.044 23.256a6 6 0 1 0 7.195-9.6l-31.044-23.257a6 6 0 1 0 -7.195 9.6z"/><path d="m67.49 101.712h31.044a6 6 0 0 0 0-12h-31.044a6 6 0 1 0 0 12z"/><path d="m106.565 128.122-31.044 23.257a6 6 0 1 0 7.195 9.6l31.044-23.256a6 6 0 1 0 -7.2-9.6z"/><path d="m75.521 40.045 31.044 23.255a6 6 0 1 0 7.2-9.6l-31.049-23.258a6 6 0 1 0 -7.195 9.6z"/><path d="m256 203.271a83.613 83.613 0 1 0 -83.613-83.613 83.708 83.708 0 0 0 83.613 83.613zm0-155.226a71.613 71.613 0 1 1 -71.613 71.613 71.694 71.694 0 0 1 71.613-71.613z"/><path d="m256.125 148.528c-.042 0-.083-.006-.125-.006s-.083 0-.125.006a11.648 11.648 0 0 1 -11.514-11.628 6 6 0 1 0 -12 0 23.681 23.681 0 0 0 17.639 22.861v5.268a6 6 0 0 0 12 0v-5.268a23.64 23.64 0 0 0 -6-46.5 11.639 11.639 0 1 1 11.639-11.639 6 6 0 1 0 12 0 23.679 23.679 0 0 0 -17.639-22.87v-4.466a6 6 0 0 0 -12 0v4.466a23.639 23.639 0 0 0 6 46.5 11.636 11.636 0 0 1 .125 23.272z"/></g></svg>