<svg xmlns="http://www.w3.org/2000/svg" viewBox="0 0 1119.88 833.29"><defs><style>.cls-1{fill:#fdfdfd;}.cls-2{fill:#fbfbfb;}.cls-3{fill:#fafafa;}.cls-4{fill:#f9f9f9;}.cls-5{fill:#f7f7f7;}.cls-6{fill:#f6f6f6;}.cls-7{fill:#f5f5f5;}.cls-8{fill:#fefefe;}.cls-9{fill:#f3f3f3;}.cls-10{fill:#f1f1f1;}.cls-11{fill:#e8e8e8;}.cls-12{fill:#f0f0f0;}.cls-13{fill:#e9e9e9;}.cls-14{fill:#e1e1e1;}.cls-15{fill:#00909a;}.cls-16{fill:#f7eded;}.cls-17{fill:#fdf0ef;}.cls-18{fill:#92d4dd;}.cls-19{fill:#f0eae9;}.cls-20{fill:#f9c700;}.cls-21{fill:#e7eaf7;}.cls-22{fill:#e7e9f3;}.cls-23{fill:#e7e9f2;}.cls-24{fill:#e7eaf4;}.cls-25{fill:#e8e9ef;}.cls-26{fill:#fd3f22;}.cls-27{fill:#e7eff1;}.cls-28{fill:#e7f0f2;}.cls-29{fill:#e7f3f5;}.cls-30{fill:#f9c806;}.cls-31{fill:#f9c805;}.cls-32{fill:#f9c804;}.cls-33{fill:#e0e0e0;}</style></defs><title>Asset 1</title><g id="Layer_2" data-name="Layer 2"><g id="Layer_1-2" data-name="Layer 1"><path class="cls-1" d="M559.94.09Q837.82.09,1115.69,0c3.42,0,4.19.77,4.19,4.19q-.15,412.46,0,824.91c0,3.42-.77,4.19-4.19,4.19q-555.75-.13-1111.5,0c-3.42,0-4.19-.77-4.19-4.19Q.14,416.65,0,4.19C0,.77.77,0,4.19,0Q282.07.15,559.94.09Z"/><path class="cls-1" d="M560,825.91q-240.46,0-480.94-.09c-13,0-26-1.79-38.14-6.89-18-7.54-27.07-22.06-30.79-40.5a160.89,160.89,0,0,1-2.81-32q.06-334,.11-668.07c0-13,1.78-26,6.81-38.15,7.46-18,22-27.19,40.39-30.94A157.28,157.28,0,0,1,86.21,6.44q477.51,0,955,.11c13,0,26,1.72,38.18,6.71,18.23,7.47,27.47,22.05,31.21,40.68a161.8,161.8,0,0,1,2.81,32q-.06,334-.12,668.07c0,13-1.77,26-6.81,38.15-7.45,18-22,27.19-40.38,30.94a157.28,157.28,0,0,1-31.55,2.84Q797.31,825.88,560,825.91Z"/><path class="cls-2" d="M16.5,114a3.63,3.63,0,0,1-.54-1.24c-.59-13.79-.92-27.6.11-41.37a69.69,69.69,0,0,1,6.15-24.47C29.09,32.2,40.5,22.8,56,18.3a103.5,103.5,0,0,1,29.13-3.69q478.86.11,957.72.21c17.09,0,33.23,4.61,45.8,17.49,9.63,9.87,13.62,22.17,15.68,35.42,1.29,8.32.83,16.64.83,25q.06,331.28-.11,662.57c0,17.09-4.57,33.22-17.42,45.83-9.84,9.65-22.14,13.67-35.4,15.75-8.15,1.28-16.33.85-24.5.85q-443.31,0-886.61,0c-20.79,0-41.59.35-62.37-.12-15.14-.34-29.61-3.5-42-13.36-10.74-8.58-16.27-20-19.24-33-2.25-9.83-2.11-19.83-1.93-29.82a12.28,12.28,0,0,1,.87-3c.33-.51.61-1,.91-1.58.73-1.25,1.76-2.37,3.25-2s1.68,2.1,1.69,3.41c0,6.08.6,12.12,1,18.18.6,9.47,2.4,18.67,6.61,27.26,6.16,12.57,16.63,19.78,29.79,23.48,9.88,2.78,20.08,3.5,30.23,3.51q470.49.13,941,0c11.54,0,23-1.18,34.06-4.86,15.89-5.31,25.34-16.58,29.74-32.44,2.69-9.74,3.45-19.78,3.45-29.77q.16-327.45,0-654.91a125.5,125.5,0,0,0-2.33-24.89c-5-24.5-19.4-36.73-43.63-40.51A177,177,0,0,0,1025,21.58q-466.15,0-932.32,0A139.07,139.07,0,0,0,65.06,24C40.29,29,27.94,43.31,24.26,67.8A170.83,170.83,0,0,0,22.5,95.49c.07,5.62.1,11.24,0,16.86,0,1.9.35,4.48-1.86,5.12S17.52,115.63,16.5,114Z"/><path class="cls-3" d="M16.5,114l4.56,3.59c0-9.69-.28-18.72.06-27.72.5-13,1-25.89,5.93-38.27C33,36.74,44.18,28.24,59,23.86c9.93-2.93,20.25-3.64,30.49-3.65q471.41-.13,942.81,0c13.41,0,26.9,1.24,39.34,7.32,12.82,6.26,20.38,16.76,24.31,30.11,2.88,9.78,3.68,19.95,3.69,30q.18,328.61,0,657.2c0,12.64-.94,25.45-6.41,37.25-6.26,13.49-16.37,21.69-31.15,25.84-20.16,5.66-40.47,4.15-60.75,4.16q-456.36.2-912.72,0c-12.16,0-24.37-1.1-36-5.85-14.79-6-23.63-17-27.76-31.93-3.49-12.61-3.76-25.64-3.81-38.74-2.28-.09-2.78,2.35-4.5,2.82Z"/><path class="cls-4" d="M559.93,808.59q-239.79,0-479.59-.08c-14.47,0-28.42-3.24-39.69-13.07-8-7-12-16.59-14.08-26.89a106.53,106.53,0,0,1-1.91-21.63q.07-334,.16-668.09c0-13.75,3.12-27,12.33-38.11C44.41,32,54.19,28,64.89,25.66a102.3,102.3,0,0,1,21.63-1.92q477.08.07,954.15.15c13.93,0,27.36,3.09,38.56,12.4,8.6,7.15,12.63,16.81,14.93,27.32a98.5,98.5,0,0,1,2,21.16q-.11,334.05-.14,668.1c0,14.47-3.22,28.4-13,39.71-7,8.07-16.57,12-26.86,14.13a106.52,106.52,0,0,1-21.64,1.94Q797.22,808.55,559.93,808.59Z"/><path class="cls-5" d="M771.48,28.34c1.64-1,3.47-.92,5.3-.92,87.53,0,175.05-.11,262.58.16,11.59,0,23.08,2.12,33.4,8.56,10.83,6.77,15.32,17.21,17.77,28.87,2,9.66,2,19.52,1.94,29.37q-.06,328.11-.14,656.23c0,11.94-1.95,23.71-8.42,34.35-6.73,11.07-17.31,15.6-29.15,18.1-9.82,2.08-19.84,1.92-29.84,1.92Q554,804.92,83.1,804.85c-12.11,0-24-1.9-34.81-8.46-11.06-6.75-15.55-17.34-18.06-29.17-2.12-10-1.9-20.14-1.9-30.29q0-327.66.14-655.32c0-11.92,2-23.71,8.49-34.32,6.8-11,17.37-15.52,29.22-18,10.14-2.12,20.45-1.9,30.75-1.89q163,.06,326,0c2.25,0,4.58-.39,6.67.9,1.89,1.53.71,2.3-.78,2.74-2.22.65-4.53.36-6.81.36q-168.21,0-336.43.06a85.68,85.68,0,0,0-24.25,3.17c-15.59,4.57-23.85,15.45-27,30.72a93.37,93.37,0,0,0-1.89,19q0,332,.07,664a83.62,83.62,0,0,0,3.17,23.78C40.15,787.51,50.9,795.72,66,799a89.32,89.32,0,0,0,19,1.92q460,0,920,0a23.51,23.51,0,0,0,5.92-.33c4.49-1.11,9.07-.6,13.61-.62,10.31-.06,20.6-.26,30.73-2.37,17.54-3.64,27.21-14.81,30.5-32a107.16,107.16,0,0,0,1.7-19.87q.17-329.55.13-659.1c0-2.59-.64-5.11-.44-7.69,2.44-13-4.49-36.12-23.55-42.95a81.36,81.36,0,0,0-27.67-4.46q-127.57-.15-255.16-.06a41.74,41.74,0,0,1-5.92-.14C773,31.05,771.34,30.66,771.48,28.34Z"/><path class="cls-5" d="M1011.29,802.21q-463.62,0-927.23-.07a79.81,79.81,0,0,1-24.55-3.57c-17.94-5.76-26.12-20.45-27.41-37.49-2.35-31.06-.92-62.2-.94-93.3q-.21-292.33,0-584.67a80.12,80.12,0,0,1,3.58-24.55c5.67-17.77,20.55-26.95,38-27.31,117.56-2.43,235.14-.49,352.72-1.2,1.24,0,4.14,2,4.13-1.71H771.48c.86,1.92,2.57,1.83,4.27,1.83H949.86c30.06,0,60.12-.21,90.17.14,8.55.1,17.17,1.39,25.19,5,15.63,7,21.85,20.15,23.42,36.14.21,2.18,1.95,5-.76,7.07-2.34-3.5-1.26-7.65-2.12-11.45-2.63-11.54-7.45-21.48-18.2-27.59a44.25,44.25,0,0,0-19.42-5.93c-6.8-.38-13.58-1.13-20.43-1.13q-468.62.1-937.23.15c-8.42,0-16.9.38-25.25,2.38C47.85,39.07,38.28,50.19,35.08,67.39a111.33,111.33,0,0,0-1.62,20.34q-.18,328.56,0,657.12a101.75,101.75,0,0,0,2.07,22.56C39.57,784.93,50.6,795,68,798.15a128.3,128.3,0,0,0,23.07,1.75q455.17.08,910.34,0a58.43,58.43,0,0,1,5.92.07C1008.93,800.16,1010.9,799.87,1011.29,802.21Z"/><path class="cls-6" d="M1011.29,802.21c-1.83-1.69-4.07-.87-6.1-.87q-457.89-.06-915.77-.17c-10.32,0-20.8-.39-30.81-4.26-14.48-5.6-22-16.55-24.65-31.18a119,119,0,0,1-1.88-21.15q-.15-328.32.07-656.64c0-10.16.42-20.49,4.27-30.34,5.65-14.46,16.66-21.68,31.22-24.69a102.81,102.81,0,0,1,20.73-1.69q472-.25,944,0c9.7,0,19.61.44,29,3.93,14.69,5.43,22.28,16.42,25.47,31.14a48.93,48.93,0,0,1,1,12.19c1.15,4.45.91,9,.91,13.54q0,326.42-.11,652.84a105.51,105.51,0,0,1-2.44,23.81c-4.11,17.79-15.52,27.61-33,30.71-12,2.13-24.09,2.1-36.21,1.93C1015.07,801.28,1013.07,801.09,1011.29,802.21Z"/><path class="cls-7" d="M36.56,66.63c1-14,11.94-26,27.55-30,1.16-.3,2.3-.67,3.45-1,1.68-1.14,3.79.28,5.47-.91,1.58-.83,3.28-.42,4.92-.42q107.85,0,215.71,0h589q80.08,0,160.18,0c1.64,0,3.34-.41,4.92.42,1.67,1.19,3.78-.23,5.47.91,15.3,2.23,26.42,11.22,30.86,28.51a62.91,62.91,0,0,1,2,15.69q-.07,337.25-.13,674.5c0,11.21-2.79,21.82-10.37,30.74-6.48,7.62-15.2,10.55-24.48,12.57-5.08,1.11-10.23.93-15.38.93q-478.23,0-956.47-.07c-11.06,0-21.61-2.55-30.43-9.94s-12.48-17.13-13.19-28.28c-.84-1.57-.43-3.28-.43-4.92q0-339.24,0-678.48C35.17,73.37,36.06,70,36.56,66.63Z"/><path class="cls-7" d="M36.56,66.63c-2.11,231.21-.32,462.44-.91,693.65-1.5-1.34-.89-3.13-.89-4.72q0-339.9,0-679.79A21.41,21.41,0,0,1,36.56,66.63Z"/><path class="cls-7" d="M882.72,34.72H643.82c-.29-.2-.39-.4-.3-.61s.2-.3.3-.3h238.9c.3.2.4.41.3.61S882.82,34.72,882.72,34.72Z"/><path class="cls-7" d="M293.69,34.72H73c1.66-1.64,3.76-.87,5.64-.87q107.51-.08,215,0c.3.2.4.41.3.61S293.79,34.72,293.69,34.72Z"/><path class="cls-7" d="M882.72,34.72v-.91q79.69,0,159.4,0c1.88,0,4-.77,5.64.87Z"/><path class="cls-7" d="M293.69,34.72v-.91H414.05c.3.2.4.41.3.61s-.2.3-.3.3Z"/><path class="cls-7" d="M414.05,34.72v-.91H530.76c.3.2.4.41.3.61s-.2.3-.3.3Z"/><ellipse class="cls-7" cx="587.29" cy="34.27" rx="79.95" ry="0.64"/><path class="cls-7" d="M1053.23,35.63c-1.83-.29-3.87.74-5.47-.91C1049.58,35,1051.63,34,1053.23,35.63Z"/><path class="cls-7" d="M73,34.72c-1.6,1.65-3.65.62-5.47.91C69.16,34,71.2,35,73,34.72Z"/><path class="cls-8" d="M1066,47.48c3.84,2.05,7.2,4.53,8.22,9.12,1.74,1.09,2.17,2.81,2.3,4.7s.09,3.94.09,5.92q0,346.7,0,693.39c0,2.13.1,4.26-.11,6.38-.5,4.89-2.31,9.09-6.6,11.9-2.35,1.28-4.72,2.54-7.48,2.69s-5.46.26-8.2.26H74.72c-1.67,0-3.34,0-5,0-6.76-.22-12-2.85-15-9.22a11.1,11.1,0,0,1-1.38-5.69c-.08-2.43-.05-4.86-.05-7.29V73.17c0-4.1,0-8.2.2-12.3a11.2,11.2,0,0,1,1.5-7c2.57-5.59,7.36-7.82,13.07-8.58a53.71,53.71,0,0,1,7.29-.19q489.72,0,979.46,0C1058.64,45.12,1062.83,44.07,1066,47.48Z"/><path class="cls-9" d="M1068.73,778.51c4.49-3.49,6.43-8,6.43-13.75q-.09-351-.05-701.95c0-2.11.31-4.27-.9-6.21,5.62,1.76,5,7.29,6.06,11.27a73.59,73.59,0,0,1,2.15,19.29q0,329.7-.06,659.41c0,9.09-1.1,18.16-4.72,26.61-5,11.58-14.47,17.52-26.43,19.86A109.52,109.52,0,0,1,1030,795q-471.58,0-943.17-.07c-9.09,0-18.16-1.1-26.63-4.68-11.62-4.92-17.56-14.43-20-26.35a107.11,107.11,0,0,1-1.92-21.17q.06-328.33.07-656.67c0-9.1,1.11-18.15,4.66-26.63,4.89-11.65,14.38-17.63,26.31-20a107.75,107.75,0,0,1,21.17-1.95q164.34.07,328.67,0c2.26,0,4.58-.4,6.67.9,3,2,2.14,3.3-.85,3.93a35.39,35.39,0,0,1-7.28.27H85a61.62,61.62,0,0,0-18.89,2.54C53.05,49.25,46.58,58.8,44.33,71.73c-1,5.7-.94,11.49-.94,17.26q0,327.2,0,654.39c0,7.43-.12,14.92,2,22.14,4,13.77,14.27,22,28.61,23.61a141.41,141.41,0,0,0,15.92.77q470.45,0,940.88,0c7.28,0,14.6.1,21.7-1.87C1058.73,786.3,1064.35,783.44,1068.73,778.51Z"/><path class="cls-9" d="M1068.73,778.51c1.78,2.57-1,3.2-2.06,4.07-7.34,5.94-16.11,8-25.3,8.69-.75.06-1.52,0-2.28,0q-478.65,0-957.3,0c-9.18,0-18-1.85-25.76-7.29S44.78,770.36,43,761.41c-1.48-7.33-.94-14.79-.94-22.2q0-329.25,0-658.5c0-9,1.81-17.66,7.09-25.36C54.73,47.24,62.91,43.84,72,42c7.8-1.53,15.71-.92,23.58-.92q163.65,0,327.31-.15c.82,0,6.09,2.78,3-2.6q306.06,0,612.1,0a58.76,58.76,0,0,1,21.75,3.83c2.55,1,5.74,1.64,6.24,5.25a25,25,0,0,0-7.16-.94q-493.84,0-987.69,0c-6.72,0-12.12,2.06-15.44,8.23-5.76,6.16-8.22,13.54-8.7,21.87-1.28,22.15-.72,44.33-.73,66.49q-.08,296.64-.06,593.29c0,7.3.57,14.57,1.08,21.82,1.16,16.45,13.3,27.12,29.8,28C105,787.7,133,787,160.92,787q431.45.12,862.88.09c7.77,0,15.45-1,23.2-1.2,5.89-.17,11-3.22,16.26-5.56Z"/><path class="cls-10" d="M1063.26,780.34c-4.65,5.29-11,6.89-17.52,7.23-37.77,2-75.58.9-113.37.92q-420.24.15-840.49-.15c-10.06,0-20.69.91-30.18-4.52C51.5,778,45.87,769.13,45.76,757.59,43.54,535,45.29,312.34,45,89.72,45,80,44,69.58,49.64,60.51c1.51-2.45,2.76-5.18,6.06-5.74-1.08,1.7-.92,3.6-.92,5.48a50.56,50.56,0,0,0-4.89,22q0,37.36,0,74.74,0,295.29,0,590.58c0,7.38.84,14.53,3.54,21.43.5,1.28.73,2.67,2.3,3.13,3.54,6.48,9.18,8.27,16.29,8.27Q567.62,780.29,1063.26,780.34Z"/><path class="cls-11" d="M802.46,529.68H582.33c-8.74,0-10.54-1.83-10.54-10.73v-169c0-7.81,2.86-10.73,10.65-10.73h440.27c7.52,0,10.47,3,10.47,10.32v170.4c0,7.61-2.14,9.77-9.68,9.77Z"/><path class="cls-11" d="M318.62,529.68H98c-7.82,0-9.51-1.72-9.51-9.65q0-85.42,0-170.85c0-7.7,2.28-10,10.07-10H539.76c7.22,0,10.13,3,10.13,10.27q0,85,0,169.94c0,8.12-2.18,10.29-10.23,10.29Z"/><path class="cls-11" d="M572.7,134.08c1.34-3.24,4-4.31,7.25-4.54,1.06-.08,2.13,0,3.19,0H1022c1.06,0,2.13-.06,3.19,0,5.42.39,7.93,3,7.94,8.47q0,31.22,0,62.42v109.8c0,7.62-2.15,9.8-9.66,9.8H581.43c-3.7,0-7.49.17-8.73-4.55-.8-1.42-.42-3-.42-4.46q0-86.25,0-172.48C572.28,137.05,571.9,135.5,572.7,134.08Z"/><path class="cls-11" d="M802.48,739.34H580.94c-7,0-9.14-2.2-9.14-9.25q0-85.44,0-170.89c0-7.35,2.12-9.48,9.37-9.48H1023.8c7.26,0,9.37,2.13,9.37,9.48q0,85.44,0,170.89c0,7-2.19,9.25-9.14,9.25Z"/><path class="cls-12" d="M55.7,772.14c-2.28,1.74-2.5-.6-3.07-1.7a39.9,39.9,0,0,1-4.2-18.39q0-155.56,0-311.14V80.58a44.24,44.24,0,0,1,3.13-16.37c.62-1.56.9-3.69,3.24-4q0,352.38,0,704.76C54.81,767.41,54.35,769.9,55.7,772.14Z"/><path class="cls-11" d="M318.78,320H98.61c-8.25,0-10.09-1.86-10.09-10.13q0-85.21,0-170.43c0-7.88,2.07-9.94,10-9.94H538.83c8.49,0,11.07,2.6,11.07,11.17V308.85c0,8.86-2.37,11.18-11.4,11.18Z"/><path class="cls-11" d="M318.63,739.34H98c-8.16,0-9.51-1.35-9.51-9.44q0-85.44,0-170.87c0-7.86,1.42-9.31,9.19-9.31H539.82c7.87,0,10.07,2.13,10.07,9.9q0,85,0,170c0,7.54-2.26,9.76-9.74,9.76Z"/><path class="cls-13" d="M560.58,111.3q-232,0-464.05-.09c-2,0-5.85,1.87-5.8-1.89,0-3,3.7-1.59,5.66-1.59q464.51-.12,929,0c1.94,0,5.52-1.52,5.59,1.68.08,3.41-3.56,1.81-5.45,1.81Q793.06,111.36,560.58,111.3Z"/><path class="cls-14" d="M124.43,70.25c9.1,0,18.21,0,27.32,0,6.15,0,7,.93,7,7.18,0,3.95.07,7.89,0,11.84-.07,3.64-2,5.59-5.7,5.6q-28.45,0-56.92,0c-3.9,0-5.8-2.09-5.79-6,0-4.4.09-8.8,0-13.2-.11-3.85,1.57-5.51,5.44-5.47C105.3,70.31,114.86,70.25,124.43,70.25Z"/><path class="cls-14" d="M179.29,70.25c3.49,0,7-.07,10.47,0s5.35,2,5.44,5.38c.11,4.55.08,9.1,0,13.65-.05,3.41-1.85,5.48-5.28,5.54-6.83.12-13.66.08-20.48,0-3.51,0-5.44-2.53-5.82-5.4A47.13,47.13,0,0,1,163.74,75c.57-3.26,2.4-5,6-4.79C172.91,70.41,176.11,70.25,179.29,70.25Z"/><path class="cls-13" d="M572.7,134.08v181.4c-1.47-1.35-.89-3.13-.89-4.73q0-86,0-171.95C571.82,137.2,571.22,135.42,572.7,134.08Z"/><path class="cls-8" d="M850.64,526q-85.68,0-171.36.08c-4,0-5.42-.85-5.4-5.21q.23-86.56,0-173.12c0-4.07,1.11-5.05,5.09-5.05q171.6.17,343.19.09c6.6,0,7.36.77,7.36,7.25v169c0,6.47-.47,6.93-7.07,6.93Z"/><path class="cls-15" d="M673.24,435c0,28.71-.07,57.42.08,86.13,0,3.8-.65,5.17-4.88,5.13-28.72-.21-57.44-.1-86.16-.11-6.3,0-6.86-.54-6.86-6.7q0-84.75,0-169.52c0-6.2.65-6.88,6.71-6.88,28.87,0,57.74.06,86.61-.08,3.55,0,4.6.88,4.58,4.54C673.17,376.71,673.24,405.88,673.24,435Z"/><path class="cls-16" d="M574.39,346.76V523h-.45V346.58Z"/><ellipse class="cls-17" cx="625.68" cy="527.45" rx="65.5" ry="0.23"/><path class="cls-8" d="M189.75,343.72c1.65-1,3.48-.9,5.31-.9H538.78c6.09,0,7.47,1.38,7.47,7.49q0,84.53,0,169.07c0,6-.62,6.64-6.44,6.64H189.7c-1.55-1.76-1.44-3.94-1.44-6q0-85.12,0-170.25C188.27,347.63,188,345.41,189.75,343.72Z"/><path class="cls-18" d="M189.75,343.72q0,91.14-.05,182.3-46.27,0-92.55,0c-4.66,0-5.73-1.36-5.26-6.14.17-1.81.2-3.64.2-5.46q0-82,0-164.06c0-6.92.58-7.52,7.53-7.52h84.8C186.25,342.88,188.09,342.7,189.75,343.72Z"/><ellipse class="cls-19" cx="141.78" cy="527.36" rx="66.18" ry="0.25"/><path class="cls-8" d="M850.63,316.38q-85.7,0-171.4.08c-4,0-5.42-.86-5.41-5.21q.23-86.59,0-173.17c0-4.16,1.29-5,5.17-5q172.08.15,344.17.09c5.62,0,6.35.72,6.35,6.27q0,85.22,0,170.43c0,5.86-.66,6.5-6.59,6.5Z"/><path class="cls-18" d="M575.54,135.12c1.62-1.6,3.56-2,5.81-2,29,.06,58,.12,87.06-.05,4,0,4.71,1.35,4.71,5q-.15,86.81,0,173.6c0,3.83-1.13,4.83-4.87,4.81-28.87-.15-57.74-.07-86.6-.09-5.49,0-6.23-.77-6.23-6.42q0-87,0-174.06c-.21-.21-.27-.4-.16-.56S575.44,135.12,575.54,135.12Z"/><path class="cls-13" d="M575.54,135.12a6.85,6.85,0,0,1-.13.79c-1.54,1.52-.85,3.46-.85,5.2q-.06,83.82-.06,167.66c0,1.6.45,3.28-.42,4.9-.82-1.18-.45-2.43-.45-3.6q0-85.42.06-170.85C573.69,137.84,572.18,135.21,575.54,135.12Z"/><path class="cls-8" d="M851.22,553.36h171.85c6.17,0,6.46.26,6.46,6.4q0,85.22.07,170.44c0,4.09-1.08,5.57-5.39,5.57q-172.77-.15-345.54,0c-4.44,0-4.79-1.77-4.78-5.36q.12-86.13,0-172.26c0-4.07.9-4.95,5-4.94C736.34,553.42,793.78,553.36,851.22,553.36Z"/><path class="cls-20" d="M673.24,644.74c0,28.86-.08,57.73.08,86.59,0,3.87-1.14,4.76-4.86,4.75-28.72-.15-57.44-.08-86.16-.09-6.24,0-6.87-.63-6.88-6.7V559.76c0-6.14.59-6.71,6.86-6.71,28.57,0,57.14.07,85.71-.09,4,0,5.38.86,5.35,5.19C673.14,587,673.24,615.88,673.24,644.74Z"/><path class="cls-21" d="M574.28,556.34V732.89h-.45V556.3Z"/><path class="cls-21" d="M578.48,551.67h93.3v.43H578.29Z"/><ellipse class="cls-22" cx="625.04" cy="737.02" rx="66.17" ry="0.24"/><path class="cls-8" d="M189.81,134.06c1.64-1.06,3.49-.89,5.31-.89H538.84c6.29,0,7.41,1.12,7.41,7.4q0,84.07,0,168.16c0,7-.67,7.64-7.43,7.64l-349.2,0c-1.52-1.78-1.36-4-1.36-6.07q0-84.9,0-169.78C188.27,138.26,187.94,135.88,189.81,134.06Z"/><path class="cls-20" d="M189.81,134.06c0,16.56-.11,33.11-.12,49.67q0,66.3-.07,132.61-46.2,0-92.41.15c-3.06,0-4.88-1.15-5.78-4l0-.45c.77-1.75.42-3.59.42-5.39q0-82.81,0-165.64c0-7.42.34-7.77,7.63-7.78q42.56,0,85.12,0C186.33,133.3,188.25,132.65,189.81,134.06Z"/><path class="cls-23" d="M91.4,312.07a.28.28,0,0,1,0,.45c-1.78.51-1-.94-1-1.51q0-86.5,0-173c0-.38.23-.76.86-1.11v4.9q0,82.19,0,164.36C91.25,308.13,91.35,310.1,91.4,312.07Z"/><path class="cls-24" d="M188.53,318.08H95.23v-.45H188.7Z"/><ellipse class="cls-25" cx="142.42" cy="131.83" rx="65.54" ry="0.25"/><path class="cls-8" d="M189.75,553.37H538.37c7.77,0,7.88.11,7.88,7.93q0,83.63,0,167.25c0,6.69-.43,7.15-6.85,7.15H189.76c-1.57-1.74-1.5-3.91-1.5-6q0-85.14,0-170.28C188.27,557.28,188,555.06,189.75,553.37Z"/><path class="cls-26" d="M189.75,553.37q0,91.15,0,182.31c-1.51.12-3,.34-4.52.34q-43.29,0-86.58,0c-6.28,0-6.85-.56-6.85-6.7q0-84.74,0-169.46c0-6.41.49-6.87,7.12-6.87q42.15,0,84.3,0c1.65,0,3.3-.25,5-.38l.4,0Z"/><path class="cls-27" d="M90.48,732.63V556.43h.43V732.81Z"/><path class="cls-28" d="M188.52,737.38H94.32v-.44H188.7Z"/><path class="cls-29" d="M188.58,552.64l-.21.1-.19-.13-81-.2H93.68c1.27-1.25,2.36-.84,3.34-.84q44.37,0,88.74,0a26,26,0,0,1,3,.31.69.69,0,0,1,.05.39A1.47,1.47,0,0,1,188.58,552.64Z"/><path class="cls-14" d="M798.83,374.74H694.91c-8,0-9.21-.89-9.17-7.05s2-7.53,9.66-7.53H833.51q34.86,0,69.74,0c6.63,0,9.51,2.37,9.53,7.65,0,5-2,6.92-7.29,6.92Z"/><path class="cls-14" d="M832.56,402.09H693.08c-5.71,0-7.38-1.27-7.33-5.51,0-3.59,2.46-5.44,7.39-5.44q140.4,0,280.79,0c3.14,0,5.75.7,6.92,4a5,5,0,0,1-4.25,7,35,35,0,0,1-4.1,0Z"/><path class="cls-14" d="M727.5,421.23c-12,0-24-.1-36,.06-3.6,0-5.37-1.38-5.74-4.86-.4-3.66,1.8-5.26,4.86-6a15.12,15.12,0,0,1,3.63-.13h67.9a14.13,14.13,0,0,1,3.63.14c2.8.77,5.1,2.17,4.78,5.65s-2.28,5.15-5.69,5.16Q746.18,421.25,727.5,421.23Z"/><path class="cls-14" d="M726.77,498.66c4.71,0,9.42.08,14.13,0,3.89-.09,5.72,2.2,5.79,5.55s-2.27,5.33-5.59,5.37c-9.57.13-19.14.16-28.71,0-3.55-.06-5.71-2.34-5.56-5.9.15-3.4,2.39-5,5.81-5C717.35,498.68,722.06,498.66,726.77,498.66Z"/><path class="cls-30" d="M700.58,504.2c-.43,3.35-2.34,5.23-5.69,5.35a5.48,5.48,0,0,1-5.44-6c.43-3.33,2.49-5.27,5.86-5.08S700.39,500.82,700.58,504.2Z"/><path class="cls-14" d="M315.23,374.74H210.41c-6.85,0-8.76-1.47-8.8-6.77s2.79-7.81,9.31-7.81H415.55c1.52,0,3,0,4.56,0,7,.08,9.62,3.25,8.51,10.15-.42,2.58-1.86,4.11-4.47,4.37a40,40,0,0,1-4.1.06Z"/><path class="cls-14" d="M349.53,402.09h-139c-1.36,0-2.73,0-4.1,0-2.8-.08-4-2.1-4.61-4.33-.68-2.46.46-4.41,2.62-5.74,1.66-1,3.5-.86,5.31-.86q139.88,0,279.74,0c2.49,0,4.78,0,6.59,2.2,1.25,1.49,2.31,2.85,1.44,4.86s-1.94,3.85-4.51,3.9c-1.37,0-2.74,0-4.11,0Z"/><path class="cls-14" d="M244,421.23q-17.76,0-35.54,0c-4.28,0-7-2.15-6.73-5.53.32-3.87,2.88-5.42,6.57-5.42h72.45c3.94,0,6.16,2.58,6.27,5.88s-2.33,5.17-6.11,5.13C268.59,421.14,256.29,421.23,244,421.23Z"/><path class="cls-14" d="M243.19,498.66c4.71,0,9.42-.08,14.12,0,3.23.08,5.59,1.21,5.43,5.12-.15,3.67-1.93,5.74-5.55,5.78q-14.13.14-28.24,0c-3.41,0-5.36-1.91-5.47-5.36-.12-3.76,1.87-5.57,5.59-5.57Z"/><path class="cls-31" d="M211.54,509.65c-3.28-.3-5.46-1.95-5.63-5.36s1.69-5.45,5.07-5.84a5.47,5.47,0,0,1,6,5.46C216.86,507.3,214.85,509.1,211.54,509.65Z"/><path class="cls-14" d="M798.84,165.08H693.53c-6.54,0-7.77-1.13-7.79-7.07s1.67-7.5,8.08-7.5H904c7.18,0,10.38,4.51,8.08,11-1.28,3.56-4.06,3.62-7,3.62H798.84Z"/><path class="cls-14" d="M833.44,181.47q69.93,0,139.86,0c1.92,0,3.91-.44,5.68,1a5.38,5.38,0,0,1,2,6.05,5,5,0,0,1-4.54,3.87c-1.06.1-2.13,0-3.19,0H693.58c-3.6,0-7.32.21-7.78-4.74-.34-3.61,1.39-5.78,5.05-6.2a34,34,0,0,1,3.64,0Z"/><path class="cls-14" d="M727.7,211.58c-11.7,0-23.39-.05-35.08,0-3.77,0-6.72-.73-6.86-5.26-.12-3.84,2.12-5.72,7-5.72q35.31,0,70.62,0c3.08,0,5.91.62,7,3.83a5.27,5.27,0,0,1-1.93,6.09c-1.48,1.21-3.11,1-4.75,1Z"/><path class="cls-14" d="M726.9,288.15c4.09,0,8.18-.07,12.28,0,4.33.09,7.62,2.84,7.62,6.22,0,3-3.47,5.56-7.55,5.57-8.48,0-17,.05-25.46,0-4.58,0-7.31-2.25-7-5.9.36-4,3.3-5.64,6.9-5.83C718.1,288,722.5,288.15,726.9,288.15Z"/><path class="cls-31" d="M689.39,293.74a5.59,5.59,0,0,1,11.16.45,5.69,5.69,0,0,1-5.81,5.62A5.92,5.92,0,0,1,689.39,293.74Z"/><path class="cls-14" d="M833,612.6H694.52c-2.12,0-4.25.2-6.2-1a5.76,5.76,0,0,1,0-9.82c2.1-1.29,4.4-1,6.65-1H971.07a20.08,20.08,0,0,1,6.29.64c2.85.89,3.85,2.87,3.78,5.48a4.92,4.92,0,0,1-3.76,5.05,19.65,19.65,0,0,1-5.84.64Z"/><path class="cls-14" d="M799.14,570.67H904c6.76,0,8.91,1.84,8.79,7.48-.1,4.75-3.08,7.1-9.1,7.1H694c-7.48,0-10.56-4.48-7.9-11.42,1.15-3,3.69-3.18,6.39-3.17q21,0,41.94,0Z"/><path class="cls-14" d="M727.72,631.74H693.07c-3.39,0-6.51-.61-7.27-4.61-.81-4.35,1.63-7.09,6.5-7.17,7.75-.11,15.5,0,23.25,0h45.58a19,19,0,0,1,5.83.71c2.44.78,3.32,2.53,3.56,4.74a4.76,4.76,0,0,1-2.52,5,11.56,11.56,0,0,1-6.1,1.44C750.51,631.71,739.11,631.74,727.72,631.74Z"/><path class="cls-14" d="M726.26,719.28c-4.56,0-9.11-.06-13.67,0-3.9.06-5.73-2.31-5.67-5.64.05-3.09,1.84-5.37,5.52-5.35q14.35.08,28.72,0c3.68,0,5.37,2.25,5.53,5.35.18,3.36-2.08,5.41-5.39,5.55-5,.22-10,.06-15,.06Z"/><path class="cls-32" d="M695.12,719.4c-3.41-.28-5.53-2.08-5.64-5.42s1.81-5.41,5.2-5.73a5.38,5.38,0,0,1,5.84,5.57C700.4,717.26,698.38,719,695.12,719.4Z"/><path class="cls-14" d="M315.09,165.08c-34,0-68-.17-102,.11-10.77.08-11.24-1.93-11.41-7.42s2.59-7.27,11.49-7.27H420.85c6.51.07,10,5,7.52,11.08-1,2.43-3,3.58-5.77,3.54-7.75-.12-15.49,0-23.23,0Z"/><path class="cls-14" d="M349.78,192.43H206.7c-3,0-4.35-2.14-4.88-4.57-.58-2.66.77-4.64,3.27-5.83,1.75-.82,3.58-.54,5.38-.54h278.4c1.07,0,2.13-.05,3.19,0,3.31.23,5.65,1.93,5.71,5.29.08,3.6-2.3,5.41-5.83,5.62-1.22.07-2.43,0-3.65,0Z"/><path class="cls-14" d="M244.47,211.58q-18,0-36,0c-4.3,0-7-2.11-6.78-5.49.28-3.86,2.81-5.47,6.51-5.47h72.41c3.69,0,6.24,1.56,6.56,5.42.28,3.38-2.47,5.53-6.74,5.54Q262.46,211.6,244.47,211.58Z"/><path class="cls-33" d="M243.07,300c-4.41,0-8.82.12-13.22,0-3.46-.13-6.14-1.3-6.44-5.5s2.5-6,5.79-6.07c9.26-.32,18.54-.31,27.79,0,3.3.12,6.1,1.77,5.77,6.1s-3,5.35-6.47,5.47C251.89,300.08,247.48,300,243.07,300Z"/><path class="cls-31" d="M205.83,294.06c.21-3.41,2.19-5.22,5.42-5.53a5.57,5.57,0,0,1,5.72,5.7c-.21,3.33-2.21,5.24-5.45,5.54C208.47,300.06,205.79,297.2,205.83,294.06Z"/><path class="cls-14" d="M350.25,600.79H488.33c5.78,0,9.53,2.2,9.54,5.56,0,3.87-3.57,6.25-9.46,6.25h-277a19.93,19.93,0,0,1-3.19,0c-3.37-.57-6.41-2-6.45-5.82s3-5.31,6.37-5.9a24.23,24.23,0,0,1,4.09-.05Z"/><path class="cls-14" d="M315.35,570.67h105.3c6.74,0,8.38,1.8,8,8.36-.17,3.42-1.82,5.36-5.1,5.93a24,24,0,0,1-4.07.28q-104.4,0-208.79,0c-6.56,0-9.29-2.39-9.11-7.88.16-4.9,2-6.69,7.06-6.69Q262,570.65,315.35,570.67Z"/><path class="cls-14" d="M244.16,631.74H211a12.87,12.87,0,0,1-3.63-.13c-2.84-.85-5.6-2.2-5.64-5.65-.05-3.7,2.8-5.09,5.85-5.93a12.37,12.37,0,0,1,3.17-.1H278c.76,0,1.52,0,2.27,0,3.76.26,7.27,3.11,6.82,6-.6,3.77-3.19,5.77-7,5.79C268.11,631.77,256.13,631.74,244.16,631.74Z"/><path class="cls-14" d="M243.08,708.32c4.41,0,8.81,0,13.21,0,3.75,0,6.33,1.36,6.37,5.38s-2.33,5.62-6.14,5.61q-13.44,0-26.88,0c-3.8,0-6.17-1.67-6.13-5.61s2.62-5.43,6.36-5.38C234.28,708.36,238.68,708.32,243.08,708.32Z"/><path class="cls-31" d="M211.56,708.17c3.29.52,5.31,2.28,5.4,5.69a5.47,5.47,0,0,1-6,5.46c-3.36-.39-5.25-2.45-5.08-5.83S208.26,708.45,211.56,708.17Z"/></g></g></svg>