<svg viewBox="0 0 1583.01 561.8" xmlns="http://www.w3.org/2000/svg"><g fill="none" stroke="#292933" stroke-linecap="round" stroke-linejoin="round" stroke-width="2"><path d="m1582 1c-119.71 126.87-670-196.78-916.77 502.42-9.39 22.06-23.57 37.2-45.1 41.54-32.61 6.58-72.45-50.5-110.53-89.52"/><path d="m331.47 494.45c-1.32 1.48-2.65 3-4 4.41-119.34 128.45-138.61-12.72-326.47 61.94"/><path d="m341.08 483.34c-.79.93-1.58 1.87-2.38 2.8"/><path d="m353.47 468.48-3.76 4.52-4.71 5.7"/><path d="m493.6 440.23c-58.39-55.08-94.35-25.28-130 16.18"/><path d="m504 449.82c-.85-.84-1.71-1.66-2.57-2.48"/></g></svg>