<?xml version="1.0" encoding="utf-8"?>
<!-- Generator: Adobe Illustrator 24.0.2, SVG Export Plug-In . SVG Version: 6.00 Build 0)  -->
<svg version="1.1" id="Layer_1" xmlns="http://www.w3.org/2000/svg" xmlns:xlink="http://www.w3.org/1999/xlink" x="0px" y="0px"
	 viewBox="0 0 885.7 152" style="enable-background:new 0 0 885.7 152;" xml:space="preserve">
<style type="text/css">
	.st0{fill:none;stroke:#C8C8C8;stroke-miterlimit:10;}
</style>
<title>Asset 1</title>
<g id="Layer_2_1_">
	<g id="Layer_1-2">
		<path class="st0" d="M0,147.5c24.2,0.2,54.1,0.5,72,1c4.8,0.1,9.2,0.1,14,0c12.8-0.4,25.8-3.1,36-4c14.6-1.3,24.5-0.4,38-5
			c6.6-2.3,13-5.3,19-9c6.9-4.1,13.2-9.6,15-12c5.5-7.5,9.3-19.4,6-39c-2.1-12.6-7.6-24.4-16-34c-8.7-10-28.4-26.6-56-24
			c-11.7,1.1-31.7,6.5-44,25c-9.3,14-10.5,30.2-8,43c1.9,10,6.4,19.3,13,27c13.1,15,30.8,18.8,45,21c30.6,4.8,63.6,6.3,81.6,5.3
			c20.2-1.2,40-3.2,55.4-6.3c32.5-6.5,54.2-16.2,71.1-29.3c6.5-5,12.5-10.5,18-16.5c8.9-9.7,15.3-19.9,23-33
			c11-18.6,17.3-29.6,30.5-36c8.6-4.2,19.9-6.3,34.9-4c19.4,3.1,36.7,14.1,47.6,30.5c12.1,18.3,18.3,47.1,4,71
			c-8.7,14.5-23,23.1-35.5,27c-38.1,11.9-80.4-14.1-100-44.5C352.9,83.6,351,67.1,352,58.5c4-32.3,36.1-48.3,48-53
			c17.4-6.8,43.8-9.2,81.1,7.8c19.3,8.7,31.8,19.5,43.9,30.3c16.5,14.6,36.2,31.6,47.6,39.8c25,17.9,52.9,31.3,82.5,39.5
			c11.5,3.1,34.4,5.9,54,8.5c21.4,2.9,46.7,5.9,77.5-3c22.4-6.4,33.7-15.5,39.5-25.5c11.5-20,7-49-10.5-66.5
			c-16.7-16.8-40.7-17-53-15.5c-10.9,1.3-21.4,5.3-30.5,11.5c-8.5,5.9-29.3,23.1-28.5,48.5c0.3,8.4,2.9,16.6,7.4,23.7
			c14.2,22.9,44,29.4,74.1,33.2c33.1,4.1,66.5,6.3,99.9,6.8c-3.4-4.7-8.3-8.1-13.8-9.8"/>
		<path class="st0" d="M876.6,151.8c2.2-3.3,5.3-5.9,9-7.4"/>
	</g>
</g>
</svg>
